# xmcd
# Track frame offsets:
# 150
# 13975
# 28907
# 40520
# 53472
# 67115
# 78675
# 90290
# 101750
# 113682
# 124755
# 136412
# 150072
# 160607
# 170055
# 184940
#
# Disc length: 2653 seconds
# Revision: 0
# Processed by: cddbd v1.4PL0 Copyright (c) Steve Scherf et al.
# Submitted via: VisiTrax 2.9.7.197 - For more info visit www.synapsa.com
#
DISCID=c60a5b10
DTITLE=Screamin' Jay Hawkins - Screamin' The Blues
DYEAR=1997
DGENRE=Blues
TTITLE0=Not Anymore
TTITLE1=Please Try To Understand
TTITLE2=Baptize Me In Wine
TTITLE3=This Is All
TTITLE4=She Put The Wammee On Me
TTITLE5=Well I Tried
TTITLE6=You're All Of My Life To Me
TTITLE7=I Hear Voices
TTITLE8=Talk About Me
TTITLE9=Just Don't Care
TTITLE10=The Whammy
TTITLE11=Poor Folks
TTITLE12=Your Kind Of Love
TTITLE13=All Night
TTITLE14=Monkberry Moon Delight
TTITLE15=Sweet Ginny
EXTD=Blue Boar Records, CDBB 1002 - IHL 18
EXTT0=
EXTT1=
EXTT2=
EXTT3=
EXTT4=
EXTT5=
EXTT6=
EXTT7=
EXTT8=
EXTT9=
EXTT10=
EXTT11=
EXTT12=
EXTT13=
EXTT14=
EXTT15=
PLAYORDER=
